<?xml version="1.0" ?><!DOCTYPE svg  PUBLIC '-//W3C//DTD SVG 1.1//EN'  'http://www.w3.org/Graphics/SVG/1.1/DTD/svg11.dtd'><svg height="21.398px" id="Capa_1" style="enable-background:new 0 0 21.659 21.398;" version="1.1" viewBox="0 0 21.659 21.398" width="21.659px" xml:space="preserve" xmlns="http://www.w3.org/2000/svg" xmlns:xlink="http://www.w3.org/1999/xlink"><g><path d="M19.093,19.565V8.379c0-0.126-0.051-0.251-0.141-0.34l-6.917-6.916   c-0.089-0.09-0.213-0.14-0.339-0.14H4.94c-0.266,0-0.481,0.215-0.481,0.48s0.215,0.48,0.481,0.48h6.556l6.634,6.635v10.987   c0,0.266,0.215,0.48,0.481,0.48S19.093,19.831,19.093,19.565z" style="fill:#231F20;"/><path d="M8.161,20.521c0,0.485,0.392,0.877,0.877,0.877h11.744c0.484,0,0.877-0.393,0.877-0.877   c0-0.483-0.393-0.876-0.877-0.876H9.038C8.553,19.645,8.161,20.038,8.161,20.521z" style="fill:#231F20;"/><path d="M17.6,9.083c0.115,0.335,0.479,0.513,0.814,0.398l0.607-0.208c0.335-0.116,0.514-0.481,0.398-0.816   l-0.117-0.341c-0.115-0.335-0.48-0.513-0.815-0.398L17.88,7.926c-0.334,0.115-0.513,0.481-0.398,0.816L17.6,9.083z" style="fill:#231F20;"/><path d="M11.443,2.644c0.316,0.16,0.702,0.033,0.862-0.284l0.289-0.573c0.159-0.316,0.032-0.702-0.284-0.862   l-0.322-0.162c-0.316-0.159-0.702-0.032-0.862,0.284L10.837,1.62c-0.159,0.316-0.032,0.702,0.284,0.862L11.443,2.644z" style="fill:#231F20;"/><circle cx="4.459" cy="7.617" r="1.483" style="fill:#231F20;"/><path d="M0,7.21c0-2.875,2.014-5.206,4.499-5.206c2.484,0,4.499,2.331,4.499,5.206   c0,0.276-0.023,0.544-0.059,0.808H0.06C0.024,7.754,0,7.486,0,7.21z" style="fill:#231F20;"/><circle cx="4.459" cy="1.483" r="1.483" style="fill:#231F20;"/><path d="M7.85,9.586c0.068-0.102,0.042-0.239-0.06-0.308L6.789,8.596C6.688,8.528,6.55,8.554,6.481,8.655   C6.412,8.757,6.438,8.894,6.539,8.963l1.003,0.682C7.58,9.671,7.623,9.683,7.666,9.683C7.737,9.683,7.807,9.649,7.85,9.586z" style="fill:#231F20;"/><path d="M1.216,9.646l1.002-0.682c0.102-0.069,0.128-0.207,0.059-0.308C2.208,8.554,2.07,8.528,1.969,8.596   L0.967,9.279C0.865,9.347,0.838,9.485,0.908,9.586c0.043,0.063,0.113,0.097,0.184,0.097C1.134,9.683,1.178,9.671,1.216,9.646z" style="fill:#231F20;"/><path d="M4.64,11.025V9.582c0-0.123-0.099-0.221-0.222-0.221c-0.123,0-0.221,0.099-0.221,0.221v1.443   c0,0.123,0.099,0.222,0.221,0.222C4.542,11.247,4.64,11.148,4.64,11.025z" style="fill:#231F20;"/></g><g/><g/><g/><g/><g/><g/><g/><g/><g/><g/><g/><g/><g/><g/><g/></svg>